<svg xmlns="http://www.w3.org/2000/svg" version="1.0" width="512.000000pt" height="512.000000pt" viewBox="0 0 512.000000 512.000000" preserveAspectRatio="xMidYMid meet">
<metadata>
Created by potrace 1.16, written by Peter Selinger 2001-2019
</metadata>
<g transform="translate(0.000000,512.000000) scale(0.100000,-0.100000)" fill="#000000" stroke="none">
<path d="M2235 5104 c-591 -80 -1100 -334 -1510 -755 -192 -197 -330 -388 -448 -621 -192 -376 -277 -737 -277 -1168 0 -431 85 -792 277 -1168 118 -233 256 -424 448 -621 413 -424 923 -678 1518 -756 156 -20 478 -20 634 0 595 78 1105 332 1518 756 192 197 330 388 448 621 192 376 277 737 277 1168 0 431 -85 792 -277 1168 -118 233 -256 424 -448 621 -413 424 -923 678 -1518 756 -146 19 -500 19 -642 -1z m672 -1320 c7 -20 -12 -446 -32 -694 -7 -96 -16 -229 -20 -295 l-6 -120 26 59 c50 111 89 171 159 242 85 85 143 110 237 101 131 -12 219 -111 265 -302 26 -109 24 -356 -4 -458 -47 -170 -145 -306 -246 -340 -69 -24 -170 -22 -226 4 -79 35 -146 115 -171 203 -6 21 -4 40 10 70 17 39 81 106 101 106 6 0 10 -27 10 -60 0 -106 64 -188 135 -175 95 18 181 209 192 428 11 212 -38 357 -123 357 -113 0 -259 -218 -332 -495 -22 -86 -26 -121 -26 -252 l-1 -153 -38 -15 c-20 -8 -59 -15 -85 -15 -57 0 -88 23 -97 72 -3 18 -5 394 -3 835 l3 802 30 32 c44 46 119 79 183 79 40 0 54 -4 59 -16z m-507 -691 l33 -6 -7 -156 c-13 -305 -45 -937 -51 -1016 -28 -354 -154 -555 -375 -595 -163 -30 -295 32 -356 165 -33 71 -51 203 -34 245 20 47 104 117 163 135 28 8 52 14 53 12 1 -1 -4 -27 -12 -57 -10 -36 -14 -86 -11 -145 5 -142 50 -205 144 -205 137 0 226 197 239 525 5 137 4 139 -13 115 -42 -57 -75 -88 -125 -116 -45 -25 -64 -29 -128 -29 -64 0 -83 4 -128 30 -97 53 -173 160 -207 291 -20 77 -20 263 1 362 23 116 83 231 158 307 84 83 147 109 271 109 86 1 94 -1 140 -31 l50 -33 5 28 c9 50 103 83 190 65z"/>
<path d="M1990 2909 c-153 -63 -251 -444 -171 -660 76 -202 255 -154 321 85 l17 60 26 -39 27 -40 0 131 c0 216 -38 372 -107 436 -33 32 -77 42 -113 27z"/>
</g>
</svg>